# xmcd CD database file generated by libcdaudio 0.99.6
# 
# Track frame offsets:
#       150
#       13727
#       28230
#       42385
#       55380
#       67375
#       80216
#       94019
#       108939
#       120513
#       134148
#       148525
#       162185
#       176631
#       191127
#       203467
#       215749
# 
# Disc length: 3075 seconds
# 
# Revision: 1
# Processed by: cddbd v1.4PL0 Copyright (c) Steve Scherf et al.
# Submitted via: libcdaudio 0.99.6
# 
DISCID=080c0111
DTITLE=Ella Fitzgerald - All I Need Is You
DYEAR=1900
DGENRE=
TTITLE0=All I Need Is You
TTITLE1=The Starlight Hour
TTITLE2=Taking A Chance On Love
TTITLE3=Lindy Hopper's Delight
TTITLE4=I'm The Lonesomest Gal In Town
TTITLE5=Sugar Blues
TTITLE6=The One I Love (Belongs To Someone Else)
TTITLE7=He's My Guy
TTITLE8=Baby Won't You Please Come Home
TTITLE9=My Melancholy Baby
TTITLE10=Yuo're Gonna loose Your Gal
TTITLE11=Gulf Coast Blues
TTITLE12=Somebody Nobody Loves
TTITLE13=All My Life
TTITLE14=I'm Getting Mighty lonesome For You
TTITLE15=Cabin In The Sky
TTITLE16=Undecided
EXTD=
EXTT0=
EXTT1=
EXTT2=
EXTT3=
EXTT4=
EXTT5=
EXTT6=
EXTT7=
EXTT8=
EXTT9=
EXTT10=
EXTT11=
EXTT12=
EXTT13=
EXTT14=
EXTT15=
EXTT16=
PLAYORDER=
